<?xml version="1.0" encoding="UTF-8" standalone="no"?>
<!DOCTYPE svg PUBLIC "-//W3C//DTD SVG 1.1//EN"
 "http://www.w3.org/Graphics/SVG/1.1/DTD/svg11.dtd">
<!-- Generated by graphviz version 2.43.0 (0)
 -->
<!-- Title: %3 Pages: 1 -->
<svg width="941pt" height="660pt"
 viewBox="0.00 0.00 940.50 660.00" xmlns="http://www.w3.org/2000/svg" xmlns:xlink="http://www.w3.org/1999/xlink">
<g id="graph0" class="graph" transform="scale(1 1) rotate(0) translate(4 656)">
<title>%3</title>
<g id="a_graph0"><a xlink:title=" ">
<polygon fill="white" stroke="transparent" points="-4,4 -4,-656 936.5,-656 936.5,4 -4,4"/>
</a>
</g>
<g id="node1" class="node">
<title></title>
<polygon fill="#ff0000" stroke="#ff0000" points="491.5,-42 430.5,-42 430.5,0 491.5,0 491.5,-42"/>
<text text-anchor="middle" x="461" y="-18" font-family="Arial" font-size="10.00" fill="#ffffff">100.00%</text>
<text text-anchor="middle" x="461" y="-7" font-family="Arial" font-size="10.00" fill="#ffffff">(100.00%)</text>
</g>
<!-- Func_1 -->
<g id="node2" class="node">
<title>Func_1</title>
<polygon fill="#0d1776" stroke="#0d1776" points="75,-112 25,-112 25,-71 75,-71 75,-112"/>
<text text-anchor="middle" x="50" y="-100" font-family="Arial" font-size="10.00" fill="#ffffff">Func_1</text>
<text text-anchor="middle" x="50" y="-89" font-family="Arial" font-size="10.00" fill="#ffffff">2.46%</text>
<text text-anchor="middle" x="50" y="-78" font-family="Arial" font-size="10.00" fill="#ffffff">(0.00%)</text>
</g>
<!-- Func_1&#45;&gt; -->
<g id="edge1" class="edge">
<title>Func_1&#45;&gt;</title>
<path fill="none" stroke="#0d1776" stroke-width="0.5" d="M58.36,-70.67C62.54,-63.23 68.36,-55.5 76,-51 105.81,-33.46 337.79,-25.35 426.59,-22.87"/>
<polygon fill="#0d1776" stroke="#0d1776" stroke-width="0.5" points="426.73,-24.09 430.19,-22.77 426.66,-21.64 426.73,-24.09"/>
<text text-anchor="middle" x="90" y="-54" font-family="Arial" font-size="10.00" fill="#0d1776">2.46%</text>
</g>
<!-- Func_2 -->
<g id="node3" class="node">
<title>Func_2</title>
<polygon fill="#0c6189" stroke="#0c6189" points="156,-212 106,-212 106,-171 156,-171 156,-212"/>
<text text-anchor="middle" x="131" y="-200" font-family="Arial" font-size="10.00" fill="#ffffff">Func_2</text>
<text text-anchor="middle" x="131" y="-189" font-family="Arial" font-size="10.00" fill="#ffffff">17.07%</text>
<text text-anchor="middle" x="131" y="-178" font-family="Arial" font-size="10.00" fill="#ffffff">(0.00%)</text>
</g>
<!-- Func_2&#45;&gt; -->
<g id="edge2" class="edge">
<title>Func_2&#45;&gt;</title>
<path fill="none" stroke="#0d257a" stroke-width="0.5" d="M140.87,-170.85C142.07,-167.94 143.16,-164.93 144,-162 155.26,-122.79 128.52,-101.15 156,-71 191.76,-31.77 354.59,-23.91 426.59,-22.36"/>
<polygon fill="#0d257a" stroke="#0d257a" stroke-width="0.5" points="426.89,-23.58 430.37,-22.29 426.84,-21.13 426.89,-23.58"/>
<text text-anchor="middle" x="170" y="-89" font-family="Arial" font-size="10.00" fill="#0d257a">5.58%</text>
</g>
<!-- Func_2&#45;&gt;Func_1 -->
<g id="edge3" class="edge">
<title>Func_2&#45;&gt;Func_1</title>
<path fill="none" stroke="#0d1074" stroke-width="0.5" d="M105.91,-181.76C95.82,-177.19 84.76,-170.71 77,-162 65.41,-148.99 58.54,-130.45 54.64,-115.79"/>
<polygon fill="#0d1074" stroke="#0d1074" stroke-width="0.5" points="55.76,-115.24 53.71,-112.15 53.39,-115.85 55.76,-115.24"/>
<text text-anchor="middle" x="91" y="-139" font-family="Arial" font-size="10.00" fill="#0d1074">0.82%</text>
</g>
<!-- strcmp -->
<g id="node4" class="node">
<title>strcmp</title>
<polygon fill="#0d3e80" stroke="#0d3e80" points="134,-112 84,-112 84,-71 134,-71 134,-112"/>
<text text-anchor="middle" x="109" y="-100" font-family="Arial" font-size="10.00" fill="#ffffff">strcmp</text>
<text text-anchor="middle" x="109" y="-89" font-family="Arial" font-size="10.00" fill="#ffffff">10.67%</text>
<text text-anchor="middle" x="109" y="-78" font-family="Arial" font-size="10.00" fill="#ffffff">(0.00%)</text>
</g>
<!-- Func_2&#45;&gt;strcmp -->
<g id="edge4" class="edge">
<title>Func_2&#45;&gt;strcmp</title>
<path fill="none" stroke="#0d3e80" stroke-width="0.5" d="M116.04,-170.97C114.42,-168.09 113,-165.05 112,-162 107.17,-147.2 106.44,-129.69 106.91,-115.95"/>
<polygon fill="#0d3e80" stroke="#0d3e80" stroke-width="0.5" points="108.15,-115.72 107.07,-112.17 105.7,-115.62 108.15,-115.72"/>
<text text-anchor="middle" x="129" y="-139" font-family="Arial" font-size="10.00" fill="#0d3e80">10.67%</text>
</g>
<!-- strcmp&#45;&gt; -->
<g id="edge43" class="edge">
<title>strcmp&#45;&gt;</title>
<path fill="none" stroke="#0d3e80" stroke-width="0.5" d="M105.02,-70.69C104.77,-63.61 106.03,-56.13 111,-51 132.66,-28.63 342.57,-23.5 426.54,-22.33"/>
<polygon fill="#0d3e80" stroke="#0d3e80" stroke-width="0.5" points="426.96,-23.55 430.44,-22.28 426.93,-21.1 426.96,-23.55"/>
<text text-anchor="middle" x="128" y="-54" font-family="Arial" font-size="10.00" fill="#0d3e80">10.67%</text>
</g>
<!-- Proc_1 -->
<g id="node5" class="node">
<title>Proc_1</title>
<polygon fill="#0c6a8b" stroke="#0c6a8b" points="340,-212 290,-212 290,-171 340,-171 340,-212"/>
<text text-anchor="middle" x="315" y="-200" font-family="Arial" font-size="10.00" fill="#ffffff">Proc_1</text>
<text text-anchor="middle" x="315" y="-189" font-family="Arial" font-size="10.00" fill="#ffffff">18.54%</text>
<text text-anchor="middle" x="315" y="-178" font-family="Arial" font-size="10.00" fill="#ffffff">(0.00%)</text>
</g>
<!-- Proc_1&#45;&gt; -->
<g id="edge5" class="edge">
<title>Proc_1&#45;&gt;</title>
<path fill="none" stroke="#0d4382" stroke-width="0.5" d="M336.98,-170.84C339.53,-168.02 341.94,-165.04 344,-162 368.56,-125.7 353.58,-104.36 382,-71 394.16,-56.72 411.56,-45.31 426.94,-37.1"/>
<polygon fill="#0d4382" stroke="#0d4382" stroke-width="0.5" points="427.86,-38.01 430.39,-35.3 426.72,-35.84 427.86,-38.01"/>
<text text-anchor="middle" x="399" y="-89" font-family="Arial" font-size="10.00" fill="#0d4382">11.65%</text>
</g>
<!-- Proc_3 -->
<g id="node6" class="node">
<title>Proc_3</title>
<polygon fill="#0d1675" stroke="#0d1675" points="239,-112 189,-112 189,-71 239,-71 239,-112"/>
<text text-anchor="middle" x="214" y="-100" font-family="Arial" font-size="10.00" fill="#ffffff">Proc_3</text>
<text text-anchor="middle" x="214" y="-89" font-family="Arial" font-size="10.00" fill="#ffffff">2.13%</text>
<text text-anchor="middle" x="214" y="-78" font-family="Arial" font-size="10.00" fill="#ffffff">(0.00%)</text>
</g>
<!-- Proc_1&#45;&gt;Proc_3 -->
<g id="edge6" class="edge">
<title>Proc_1&#45;&gt;Proc_3</title>
<path fill="none" stroke="#0d1675" stroke-width="0.5" d="M289.66,-185.44C274.76,-181.32 256.46,-174.14 244,-162 231.25,-149.57 223.59,-130.82 219.2,-115.93"/>
<polygon fill="#0d1675" stroke="#0d1675" stroke-width="0.5" points="220.29,-115.27 218.16,-112.24 217.93,-115.94 220.29,-115.27"/>
<text text-anchor="middle" x="258" y="-139" font-family="Arial" font-size="10.00" fill="#0d1675">2.13%</text>
</g>
<!-- Proc_6 -->
<g id="node7" class="node">
<title>Proc_6</title>
<polygon fill="#0d1e78" stroke="#0d1e78" points="298,-112 248,-112 248,-71 298,-71 298,-112"/>
<text text-anchor="middle" x="273" y="-100" font-family="Arial" font-size="10.00" fill="#ffffff">Proc_6</text>
<text text-anchor="middle" x="273" y="-89" font-family="Arial" font-size="10.00" fill="#ffffff">4.10%</text>
<text text-anchor="middle" x="273" y="-78" font-family="Arial" font-size="10.00" fill="#ffffff">(0.00%)</text>
</g>
<!-- Proc_1&#45;&gt;Proc_6 -->
<g id="edge7" class="edge">
<title>Proc_1&#45;&gt;Proc_6</title>
<path fill="none" stroke="#0d1e78" stroke-width="0.5" d="M290.14,-170.76C287.78,-168.03 285.66,-165.09 284,-162 276.39,-147.81 273.7,-129.8 272.88,-115.67"/>
<polygon fill="#0d1e78" stroke="#0d1e78" stroke-width="0.5" points="274.11,-115.61 272.71,-112.17 271.66,-115.73 274.11,-115.61"/>
<text text-anchor="middle" x="298" y="-139" font-family="Arial" font-size="10.00" fill="#0d1e78">4.10%</text>
</g>
<!-- Proc_7 -->
<g id="node8" class="node">
<title>Proc_7</title>
<polygon fill="#0d1977" stroke="#0d1977" points="357,-112 307,-112 307,-71 357,-71 357,-112"/>
<text text-anchor="middle" x="332" y="-100" font-family="Arial" font-size="10.00" fill="#ffffff">Proc_7</text>
<text text-anchor="middle" x="332" y="-89" font-family="Arial" font-size="10.00" fill="#ffffff">2.95%</text>
<text text-anchor="middle" x="332" y="-78" font-family="Arial" font-size="10.00" fill="#ffffff">(0.00%)</text>
</g>
<!-- Proc_1&#45;&gt;Proc_7 -->
<g id="edge8" class="edge">
<title>Proc_1&#45;&gt;Proc_7</title>
<path fill="none" stroke="#0d0f74" stroke-width="0.5" d="M313.71,-170.71C313.31,-156.63 313.82,-137.38 318,-121 318.48,-119.13 319.09,-117.24 319.78,-115.37"/>
<polygon fill="#0d0f74" stroke="#0d0f74" stroke-width="0.5" points="320.95,-115.73 321.11,-112.03 318.68,-114.82 320.95,-115.73"/>
<text text-anchor="middle" x="332" y="-139" font-family="Arial" font-size="10.00" fill="#0d0f74">0.66%</text>
</g>
<!-- Proc_3&#45;&gt; -->
<g id="edge10" class="edge">
<title>Proc_3&#45;&gt;</title>
<path fill="none" stroke="#0d1675" stroke-width="0.5" d="M233.35,-70.9C241.78,-63.49 252.19,-55.73 263,-51 316.82,-27.48 385.9,-22.38 426.61,-21.63"/>
<polygon fill="#0d1675" stroke="#0d1675" stroke-width="0.5" points="426.98,-22.85 430.47,-21.57 426.95,-20.4 426.98,-22.85"/>
<text text-anchor="middle" x="277" y="-54" font-family="Arial" font-size="10.00" fill="#0d1675">2.13%</text>
</g>
<!-- Proc_6&#45;&gt; -->
<g id="edge13" class="edge">
<title>Proc_6&#45;&gt;</title>
<path fill="none" stroke="#0d1c77" stroke-width="0.5" d="M284.8,-70.64C290.09,-63.38 296.96,-55.78 305,-51 342.57,-28.64 393.52,-22.86 426.82,-21.69"/>
<polygon fill="#0d1c77" stroke="#0d1c77" stroke-width="0.5" points="426.92,-22.92 430.38,-21.58 426.85,-20.47 426.92,-22.92"/>
<text text-anchor="middle" x="319" y="-54" font-family="Arial" font-size="10.00" fill="#0d1c77">3.61%</text>
</g>
<!-- Proc_7&#45;&gt; -->
<g id="edge14" class="edge">
<title>Proc_7&#45;&gt;</title>
<path fill="none" stroke="#0d1977" stroke-width="0.5" d="M331.77,-70.8C332.68,-63.74 334.95,-56.24 340,-51 351.86,-38.72 395.21,-30.54 426.63,-26.09"/>
<polygon fill="#0d1977" stroke="#0d1977" stroke-width="0.5" points="427.11,-27.26 430.41,-25.57 426.77,-24.84 427.11,-27.26"/>
<text text-anchor="middle" x="354" y="-54" font-family="Arial" font-size="10.00" fill="#0d1977">2.95%</text>
</g>
<!-- Proc_2 -->
<g id="node9" class="node">
<title>Proc_2</title>
<polygon fill="#0d1375" stroke="#0d1375" points="423,-462 373,-462 373,-421 423,-421 423,-462"/>
<text text-anchor="middle" x="398" y="-450" font-family="Arial" font-size="10.00" fill="#ffffff">Proc_2</text>
<text text-anchor="middle" x="398" y="-439" font-family="Arial" font-size="10.00" fill="#ffffff">1.48%</text>
<text text-anchor="middle" x="398" y="-428" font-family="Arial" font-size="10.00" fill="#ffffff">(0.00%)</text>
</g>
<!-- Proc_2&#45;&gt; -->
<g id="edge9" class="edge">
<title>Proc_2&#45;&gt;</title>
<path fill="none" stroke="#0d1375" stroke-width="0.5" d="M397.17,-420.72C395.85,-382.11 394.33,-294.13 404,-221 412.99,-153.03 420.65,-136.77 440,-71 442.66,-61.97 443.39,-59.7 447,-51 447.75,-49.19 448.56,-47.34 449.39,-45.48"/>
<polygon fill="#0d1375" stroke="#0d1375" stroke-width="0.5" points="450.57,-45.84 450.91,-42.15 448.34,-44.82 450.57,-45.84"/>
<text text-anchor="middle" x="418" y="-239" font-family="Arial" font-size="10.00" fill="#0d1375">1.48%</text>
</g>
<!-- Proc_4 -->
<g id="node10" class="node">
<title>Proc_4</title>
<polygon fill="#0d1375" stroke="#0d1375" points="462,-362 412,-362 412,-321 462,-321 462,-362"/>
<text text-anchor="middle" x="437" y="-350" font-family="Arial" font-size="10.00" fill="#ffffff">Proc_4</text>
<text text-anchor="middle" x="437" y="-339" font-family="Arial" font-size="10.00" fill="#ffffff">1.48%</text>
<text text-anchor="middle" x="437" y="-328" font-family="Arial" font-size="10.00" fill="#ffffff">(0.00%)</text>
</g>
<!-- Proc_4&#45;&gt; -->
<g id="edge11" class="edge">
<title>Proc_4&#45;&gt;</title>
<path fill="none" stroke="#0d1375" stroke-width="0.5" d="M435.98,-320.93C433.97,-273.85 431.31,-150.79 452,-51 452.36,-49.28 452.77,-47.52 453.22,-45.76"/>
<polygon fill="#0d1375" stroke="#0d1375" stroke-width="0.5" points="454.47,-45.85 454.2,-42.15 452.1,-45.21 454.47,-45.85"/>
<text text-anchor="middle" x="451" y="-189" font-family="Arial" font-size="10.00" fill="#0d1375">1.48%</text>
</g>
<!-- Proc_5 -->
<g id="node11" class="node">
<title>Proc_5</title>
<polygon fill="#0d0f74" stroke="#0d0f74" points="499,-262 449,-262 449,-221 499,-221 499,-262"/>
<text text-anchor="middle" x="474" y="-250" font-family="Arial" font-size="10.00" fill="#ffffff">Proc_5</text>
<text text-anchor="middle" x="474" y="-239" font-family="Arial" font-size="10.00" fill="#ffffff">0.66%</text>
<text text-anchor="middle" x="474" y="-228" font-family="Arial" font-size="10.00" fill="#ffffff">(0.00%)</text>
</g>
<!-- Proc_5&#45;&gt; -->
<g id="edge12" class="edge">
<title>Proc_5&#45;&gt;</title>
<path fill="none" stroke="#0d0f74" stroke-width="0.5" d="M475.57,-220.97C476.02,-206.67 475.15,-187.04 469,-171 467.18,-166.27 463.66,-166.79 462,-162 448.5,-123.1 452.43,-74.38 456.63,-45.87"/>
<polygon fill="#0d0f74" stroke="#0d0f74" stroke-width="0.5" points="457.88,-45.8 457.2,-42.16 455.46,-45.43 457.88,-45.8"/>
<text text-anchor="middle" x="476" y="-139" font-family="Arial" font-size="10.00" fill="#0d0f74">0.66%</text>
</g>
<!-- Proc_8 -->
<g id="node12" class="node">
<title>Proc_8</title>
<polygon fill="#0d1e78" stroke="#0d1e78" points="544,-162 494,-162 494,-121 544,-121 544,-162"/>
<text text-anchor="middle" x="519" y="-150" font-family="Arial" font-size="10.00" fill="#ffffff">Proc_8</text>
<text text-anchor="middle" x="519" y="-139" font-family="Arial" font-size="10.00" fill="#ffffff">4.10%</text>
<text text-anchor="middle" x="519" y="-128" font-family="Arial" font-size="10.00" fill="#ffffff">(0.00%)</text>
</g>
<!-- Proc_8&#45;&gt; -->
<g id="edge15" class="edge">
<title>Proc_8&#45;&gt;</title>
<path fill="none" stroke="#0d1e78" stroke-width="0.5" d="M509.42,-120.93C499.3,-100.26 483.34,-67.65 472.54,-45.57"/>
<polygon fill="#0d1e78" stroke="#0d1e78" stroke-width="0.5" points="473.62,-45 470.98,-42.39 471.42,-46.07 473.62,-45"/>
<text text-anchor="middle" x="518" y="-89" font-family="Arial" font-size="10.00" fill="#0d1e78">4.10%</text>
</g>
<!-- __puts_uart -->
<g id="node13" class="node">
<title>__puts_uart</title>
<polygon fill="#0d4582" stroke="#0d4582" points="766,-312 698,-312 698,-271 766,-271 766,-312"/>
<text text-anchor="middle" x="732" y="-300" font-family="Arial" font-size="10.00" fill="#ffffff">__puts_uart</text>
<text text-anchor="middle" x="732" y="-289" font-family="Arial" font-size="10.00" fill="#ffffff">11.90%</text>
<text text-anchor="middle" x="732" y="-278" font-family="Arial" font-size="10.00" fill="#ffffff">(0.00%)</text>
</g>
<!-- __puts_uart&#45;&gt; -->
<g id="edge16" class="edge">
<title>__puts_uart&#45;&gt;</title>
<path fill="none" stroke="#0d1f78" stroke-width="0.5" d="M755.69,-270.97C758.1,-268.17 760.29,-265.16 762,-262 792.37,-205.98 769.15,-181.87 788,-121 789.29,-116.82 791.09,-116.28 792,-112 795.78,-94.17 802.95,-85.57 792,-71 756.92,-24.31 572.77,-20.73 495.35,-21.35"/>
<polygon fill="#0d1f78" stroke="#0d1f78" stroke-width="0.5" points="495.23,-20.13 491.74,-21.38 495.25,-22.58 495.23,-20.13"/>
<text text-anchor="middle" x="802" y="-139" font-family="Arial" font-size="10.00" fill="#0d1f78">4.29%</text>
</g>
<!-- _write -->
<g id="node14" class="node">
<title>_write</title>
<polygon fill="#0d2f7d" stroke="#0d2f7d" points="757,-212 707,-212 707,-171 757,-171 757,-212"/>
<text text-anchor="middle" x="732" y="-200" font-family="Arial" font-size="10.00" fill="#ffffff">_write</text>
<text text-anchor="middle" x="732" y="-189" font-family="Arial" font-size="10.00" fill="#ffffff">7.62%</text>
<text text-anchor="middle" x="732" y="-178" font-family="Arial" font-size="10.00" fill="#ffffff">(0.00%)</text>
</g>
<!-- __puts_uart&#45;&gt;_write -->
<g id="edge17" class="edge">
<title>__puts_uart&#45;&gt;_write</title>
<path fill="none" stroke="#0d2f7d" stroke-width="0.5" d="M732,-270.67C732,-254.86 732,-232.69 732,-215.99"/>
<polygon fill="#0d2f7d" stroke="#0d2f7d" stroke-width="0.5" points="733.23,-215.8 732,-212.3 730.78,-215.8 733.23,-215.8"/>
<text text-anchor="middle" x="746" y="-239" font-family="Arial" font-size="10.00" fill="#0d2f7d">7.62%</text>
</g>
<!-- _write&#45;&gt; -->
<g id="edge19" class="edge">
<title>_write&#45;&gt;</title>
<path fill="none" stroke="#0d267a" stroke-width="0.5" d="M711.81,-170.75C697.4,-155.75 678.46,-134 666,-112 651.87,-87.05 666.97,-69.42 645,-51 622.9,-32.47 542.28,-25.68 495.41,-23.27"/>
<polygon fill="#0d267a" stroke="#0d267a" stroke-width="0.5" points="495.38,-22.04 491.82,-23.09 495.26,-24.49 495.38,-22.04"/>
<text text-anchor="middle" x="680" y="-89" font-family="Arial" font-size="10.00" fill="#0d267a">5.69%</text>
</g>
<!-- send_byte_uart0 -->
<g id="node16" class="node">
<title>send_byte_uart0</title>
<polygon fill="#0d1575" stroke="#0d1575" points="787.5,-112 698.5,-112 698.5,-71 787.5,-71 787.5,-112"/>
<text text-anchor="middle" x="743" y="-100" font-family="Arial" font-size="10.00" fill="#ffffff">send_byte_uart0</text>
<text text-anchor="middle" x="743" y="-89" font-family="Arial" font-size="10.00" fill="#ffffff">1.92%</text>
<text text-anchor="middle" x="743" y="-78" font-family="Arial" font-size="10.00" fill="#ffffff">(0.00%)</text>
</g>
<!-- _write&#45;&gt;send_byte_uart0 -->
<g id="edge20" class="edge">
<title>_write&#45;&gt;send_byte_uart0</title>
<path fill="none" stroke="#0d1575" stroke-width="0.5" d="M734.23,-170.67C736,-154.86 738.49,-132.69 740.36,-115.99"/>
<polygon fill="#0d1575" stroke="#0d1575" stroke-width="0.5" points="741.6,-115.92 740.78,-112.3 739.17,-115.64 741.6,-115.92"/>
<text text-anchor="middle" x="753" y="-139" font-family="Arial" font-size="10.00" fill="#0d1575">1.92%</text>
</g>
<!-- __udivsi3 -->
<g id="node15" class="node">
<title>__udivsi3</title>
<polygon fill="#0d2279" stroke="#0d2279" points="626,-212 568,-212 568,-171 626,-171 626,-212"/>
<text text-anchor="middle" x="597" y="-200" font-family="Arial" font-size="10.00" fill="#ffffff">__udivsi3</text>
<text text-anchor="middle" x="597" y="-189" font-family="Arial" font-size="10.00" fill="#ffffff">4.94%</text>
<text text-anchor="middle" x="597" y="-178" font-family="Arial" font-size="10.00" fill="#ffffff">(0.00%)</text>
</g>
<!-- __udivsi3&#45;&gt; -->
<g id="edge18" class="edge">
<title>__udivsi3&#45;&gt;</title>
<path fill="none" stroke="#0d2279" stroke-width="0.5" d="M594.36,-170.86C589.36,-136.63 577.55,-68.05 561,-51 543.98,-33.47 517.05,-26.36 495.42,-23.57"/>
<polygon fill="#0d2279" stroke="#0d2279" stroke-width="0.5" points="495.35,-22.32 491.73,-23.12 495.06,-24.75 495.35,-22.32"/>
<text text-anchor="middle" x="597" y="-89" font-family="Arial" font-size="10.00" fill="#0d2279">4.94%</text>
</g>
<!-- send_byte_uart0&#45;&gt; -->
<g id="edge42" class="edge">
<title>send_byte_uart0&#45;&gt;</title>
<path fill="none" stroke="#0d1575" stroke-width="0.5" d="M711.58,-70.85C698.55,-63.53 682.99,-55.83 668,-51 609.16,-32.03 536.97,-25.46 495.25,-23.19"/>
<polygon fill="#0d1575" stroke="#0d1575" stroke-width="0.5" points="495.11,-21.96 491.55,-23 494.98,-24.41 495.11,-21.96"/>
<text text-anchor="middle" x="707" y="-54" font-family="Arial" font-size="10.00" fill="#0d1575">1.92%</text>
</g>
<!-- call_main -->
<g id="node17" class="node">
<title>call_main</title>
<polygon fill="#fc1401" stroke="#fc1401" points="441,-652 383,-652 383,-611 441,-611 441,-652"/>
<text text-anchor="middle" x="412" y="-640" font-family="Arial" font-size="10.00" fill="#ffffff">call_main</text>
<text text-anchor="middle" x="412" y="-629" font-family="Arial" font-size="10.00" fill="#ffffff">98.01%</text>
<text text-anchor="middle" x="412" y="-618" font-family="Arial" font-size="10.00" fill="#ffffff">(0.00%)</text>
</g>
<!-- main -->
<g id="node18" class="node">
<title>main</title>
<polygon fill="#fc1501" stroke="#fc1501" points="437,-582 387,-582 387,-541 437,-541 437,-582"/>
<text text-anchor="middle" x="412" y="-570" font-family="Arial" font-size="10.00" fill="#ffffff">main</text>
<text text-anchor="middle" x="412" y="-559" font-family="Arial" font-size="10.00" fill="#ffffff">98.00%</text>
<text text-anchor="middle" x="412" y="-548" font-family="Arial" font-size="10.00" fill="#ffffff">(0.00%)</text>
</g>
<!-- call_main&#45;&gt;main -->
<g id="edge21" class="edge">
<title>call_main&#45;&gt;main</title>
<path fill="none" stroke="#fc1501" stroke-width="3.92" d="M412,-610.83C412,-605.1 412,-598.71 412,-592.5"/>
<polygon fill="#fc1501" stroke="#fc1501" stroke-width="3.92" points="415.47,-592.26 412,-582.36 408.54,-592.26 415.47,-592.26"/>
<text text-anchor="middle" x="429" y="-594" font-family="Arial" font-size="10.00" fill="#fc1501">98.00%</text>
</g>
<!-- main&#45;&gt; -->
<g id="edge23" class="edge">
<title>main&#45;&gt;</title>
<path fill="none" stroke="#0c5085" stroke-width="0.56" d="M386.86,-559.9C317.71,-558.03 125.83,-551.21 66,-532 33.45,-521.55 0,-526.69 0,-492.5 0,-492.5 0,-492.5 0,-90.5 0,-68.93 60.69,-51.6 63,-51 131.32,-33.26 343.03,-25.39 426.59,-22.91"/>
<polygon fill="#0c5085" stroke="#0c5085" stroke-width="0.56" points="426.81,-24.2 430.47,-22.8 426.73,-21.61 426.81,-24.2"/>
<text text-anchor="middle" x="17" y="-289" font-family="Arial" font-size="10.00" fill="#0c5085">14.04%</text>
</g>
<!-- main&#45;&gt;Func_1 -->
<g id="edge24" class="edge">
<title>main&#45;&gt;Func_1</title>
<path fill="none" stroke="#0d1475" stroke-width="0.5" d="M386.98,-561.14C304.74,-562.6 48,-561.61 48,-492.5 48,-492.5 48,-492.5 48,-190.5 48,-164.97 48.69,-135.72 49.26,-115.86"/>
<polygon fill="#0d1475" stroke="#0d1475" stroke-width="0.5" points="50.49,-115.56 49.37,-112.02 48.04,-115.48 50.49,-115.56"/>
<text text-anchor="middle" x="62" y="-339" font-family="Arial" font-size="10.00" fill="#0d1475">1.64%</text>
</g>
<!-- main&#45;&gt;Func_2 -->
<g id="edge25" class="edge">
<title>main&#45;&gt;Func_2</title>
<path fill="none" stroke="#0c6189" stroke-width="0.68" d="M386.92,-557.93C330.2,-551.42 197,-531.94 197,-492.5 197,-492.5 197,-492.5 197,-290.5 197,-260.83 175.93,-233.41 157.6,-215.16"/>
<polygon fill="#0c6189" stroke="#0c6189" stroke-width="0.68" points="158.39,-213.92 154.45,-212.09 156.39,-215.98 158.39,-213.92"/>
<text text-anchor="middle" x="214" y="-389" font-family="Arial" font-size="10.00" fill="#0c6189">17.07%</text>
</g>
<!-- main&#45;&gt;Proc_1 -->
<g id="edge26" class="edge">
<title>main&#45;&gt;Proc_1</title>
<path fill="none" stroke="#0c6a8b" stroke-width="0.74" d="M386.77,-554.55C358.03,-546.09 315,-527.57 315,-492.5 315,-492.5 315,-492.5 315,-290.5 315,-265.19 315,-236.21 315,-216.36"/>
<polygon fill="#0c6a8b" stroke="#0c6a8b" stroke-width="0.74" points="316.51,-216.32 315,-212.02 313.5,-216.32 316.51,-216.32"/>
<text text-anchor="middle" x="332" y="-389" font-family="Arial" font-size="10.00" fill="#0c6a8b">18.54%</text>
</g>
<!-- main&#45;&gt;Proc_7 -->
<g id="edge30" class="edge">
<title>main&#45;&gt;Proc_7</title>
<path fill="none" stroke="#0d1676" stroke-width="0.5" d="M396.92,-540.77C395.11,-537.92 393.41,-534.95 392,-532 378.07,-502.8 377.61,-493.87 372,-462 345.66,-312.37 391.58,-266.55 348,-121 347.45,-119.17 346.77,-117.32 346,-115.5"/>
<polygon fill="#0d1676" stroke="#0d1676" stroke-width="0.5" points="347.08,-114.93 344.52,-112.25 344.85,-115.94 347.08,-114.93"/>
<text text-anchor="middle" x="379" y="-339" font-family="Arial" font-size="10.00" fill="#0d1676">2.30%</text>
</g>
<!-- main&#45;&gt;Proc_2 -->
<g id="edge27" class="edge">
<title>main&#45;&gt;Proc_2</title>
<path fill="none" stroke="#0d1375" stroke-width="0.5" d="M399.28,-540.81C397.94,-537.95 396.78,-534.96 396,-532 390.25,-510.01 391.72,-483.93 394.04,-465.62"/>
<polygon fill="#0d1375" stroke="#0d1375" stroke-width="0.5" points="395.27,-465.69 394.51,-462.06 392.84,-465.37 395.27,-465.69"/>
<text text-anchor="middle" x="410" y="-524" font-family="Arial" font-size="10.00" fill="#0d1375">1.48%</text>
</g>
<!-- main&#45;&gt;Proc_4 -->
<g id="edge28" class="edge">
<title>main&#45;&gt;Proc_4</title>
<path fill="none" stroke="#0d1375" stroke-width="0.5" d="M419.66,-540.76C420.57,-537.85 421.39,-534.87 422,-532 434.44,-473.12 436.77,-401.97 437.08,-365.91"/>
<polygon fill="#0d1375" stroke="#0d1375" stroke-width="0.5" points="438.31,-365.61 437.11,-362.11 435.86,-365.6 438.31,-365.61"/>
<text text-anchor="middle" x="445" y="-489" font-family="Arial" font-size="10.00" fill="#0d1375">1.48%</text>
</g>
<!-- main&#45;&gt;Proc_5 -->
<g id="edge29" class="edge">
<title>main&#45;&gt;Proc_5</title>
<path fill="none" stroke="#0d0f74" stroke-width="0.5" d="M437.18,-542.22C446.37,-534.09 455.79,-523.7 461,-512 470.89,-489.82 473.29,-326.74 473.84,-265.58"/>
<polygon fill="#0d0f74" stroke="#0d0f74" stroke-width="0.5" points="475.07,-265.56 473.87,-262.05 472.62,-265.54 475.07,-265.56"/>
<text text-anchor="middle" x="484" y="-439" font-family="Arial" font-size="10.00" fill="#0d0f74">0.66%</text>
</g>
<!-- main&#45;&gt;Proc_8 -->
<g id="edge31" class="edge">
<title>main&#45;&gt;Proc_8</title>
<path fill="none" stroke="#0d1e78" stroke-width="0.5" d="M437.32,-547.55C444.48,-543.19 451.96,-537.91 458,-532 469.63,-520.62 496.24,-475.4 500,-462 502.73,-452.26 501.51,-381.1 502,-371 505.61,-295.94 513.15,-207.23 516.85,-165.89"/>
<polygon fill="#0d1e78" stroke="#0d1e78" stroke-width="0.5" points="518.11,-165.64 517.2,-162.04 515.67,-165.42 518.11,-165.64"/>
<text text-anchor="middle" x="516" y="-389" font-family="Arial" font-size="10.00" fill="#0d1e78">4.10%</text>
</g>
<!-- main&#45;&gt;__udivsi3 -->
<g id="edge32" class="edge">
<title>main&#45;&gt;__udivsi3</title>
<path fill="none" stroke="#0d1f78" stroke-width="0.5" d="M437.18,-558.41C474.72,-553.75 541,-538.96 541,-492.5 541,-492.5 541,-492.5 541,-290.5 541,-259.35 533,-247.1 550,-221 553.69,-215.33 558.94,-210.62 564.6,-206.76"/>
<polygon fill="#0d1f78" stroke="#0d1f78" stroke-width="0.5" points="565.51,-207.64 567.78,-204.71 564.18,-205.58 565.51,-207.64"/>
<text text-anchor="middle" x="555" y="-389" font-family="Arial" font-size="10.00" fill="#0d1f78">4.27%</text>
</g>
<!-- mini_printf -->
<g id="node20" class="node">
<title>mini_printf</title>
<polygon fill="#0c668a" stroke="#0c668a" points="617,-512 555,-512 555,-471 617,-471 617,-512"/>
<text text-anchor="middle" x="586" y="-500" font-family="Arial" font-size="10.00" fill="#ffffff">mini_printf</text>
<text text-anchor="middle" x="586" y="-489" font-family="Arial" font-size="10.00" fill="#ffffff">17.79%</text>
<text text-anchor="middle" x="586" y="-478" font-family="Arial" font-size="10.00" fill="#ffffff">(0.00%)</text>
</g>
<!-- main&#45;&gt;mini_printf -->
<g id="edge33" class="edge">
<title>main&#45;&gt;mini_printf</title>
<path fill="none" stroke="#0c668a" stroke-width="0.71" d="M437.1,-559.64C465.62,-557.7 512.75,-551.51 548,-532 555.45,-527.88 562.33,-521.81 568.13,-515.67"/>
<polygon fill="#0c668a" stroke="#0c668a" stroke-width="0.71" points="569.5,-516.35 571.24,-512.26 567.32,-514.37 569.5,-516.35"/>
<text text-anchor="middle" x="579" y="-524" font-family="Arial" font-size="10.00" fill="#0c668a">17.79%</text>
</g>
<!-- strcpy -->
<g id="node21" class="node">
<title>strcpy</title>
<polygon fill="#0c5185" stroke="#0c5185" points="775,-462 725,-462 725,-421 775,-421 775,-462"/>
<text text-anchor="middle" x="750" y="-450" font-family="Arial" font-size="10.00" fill="#ffffff">strcpy</text>
<text text-anchor="middle" x="750" y="-439" font-family="Arial" font-size="10.00" fill="#ffffff">14.15%</text>
<text text-anchor="middle" x="750" y="-428" font-family="Arial" font-size="10.00" fill="#ffffff">(0.00%)</text>
</g>
<!-- main&#45;&gt;strcpy -->
<g id="edge34" class="edge">
<title>main&#45;&gt;strcpy</title>
<path fill="none" stroke="#0c5185" stroke-width="0.57" d="M437.1,-559.66C473.54,-557.77 542.76,-551.67 598,-532 644.35,-515.5 692.38,-484.46 721.73,-463.63"/>
<polygon fill="#0c5185" stroke="#0c5185" stroke-width="0.57" points="722.55,-464.69 724.87,-461.4 721,-462.52 722.55,-464.69"/>
<text text-anchor="middle" x="640" y="-524" font-family="Arial" font-size="10.00" fill="#0c5185">14.15%</text>
</g>
<!-- clear_bss_w_loop -->
<g id="node19" class="node">
<title>clear_bss_w_loop</title>
<polygon fill="#0d1575" stroke="#0d1575" points="932.5,-112 837.5,-112 837.5,-71 932.5,-71 932.5,-112"/>
<text text-anchor="middle" x="885" y="-100" font-family="Arial" font-size="10.00" fill="#ffffff">clear_bss_w_loop</text>
<text text-anchor="middle" x="885" y="-89" font-family="Arial" font-size="10.00" fill="#ffffff">1.97%</text>
<text text-anchor="middle" x="885" y="-78" font-family="Arial" font-size="10.00" fill="#ffffff">(0.00%)</text>
</g>
<!-- clear_bss_w_loop&#45;&gt; -->
<g id="edge22" class="edge">
<title>clear_bss_w_loop&#45;&gt;</title>
<path fill="none" stroke="#0d1575" stroke-width="0.5" d="M863.59,-70.95C854.01,-63.36 842.14,-55.44 830,-51 769.11,-28.73 574.93,-23.55 495.43,-22.35"/>
<polygon fill="#0d1575" stroke="#0d1575" stroke-width="0.5" points="495.25,-21.13 491.73,-22.3 495.22,-23.58 495.25,-21.13"/>
<text text-anchor="middle" x="863" y="-54" font-family="Arial" font-size="10.00" fill="#0d1575">1.97%</text>
</g>
<!-- mini_printf&#45;&gt; -->
<g id="edge37" class="edge">
<title>mini_printf&#45;&gt;</title>
<path fill="none" stroke="#0d0e73" stroke-width="0.5" d="M584.63,-471C579,-392.8 556.83,-104.51 534,-71 524.33,-56.81 509.06,-45.63 494.99,-37.55"/>
<polygon fill="#0d0e73" stroke="#0d0e73" stroke-width="0.5" points="495.47,-36.42 491.82,-35.77 494.27,-38.55 495.47,-36.42"/>
<text text-anchor="middle" x="580" y="-239" font-family="Arial" font-size="10.00" fill="#0d0e73">0.23%</text>
</g>
<!-- mini_vpprintf -->
<g id="node23" class="node">
<title>mini_vpprintf</title>
<polygon fill="#0c648a" stroke="#0c648a" points="684,-412 612,-412 612,-371 684,-371 684,-412"/>
<text text-anchor="middle" x="648" y="-400" font-family="Arial" font-size="10.00" fill="#ffffff">mini_vpprintf</text>
<text text-anchor="middle" x="648" y="-389" font-family="Arial" font-size="10.00" fill="#ffffff">17.56%</text>
<text text-anchor="middle" x="648" y="-378" font-family="Arial" font-size="10.00" fill="#ffffff">(0.00%)</text>
</g>
<!-- mini_printf&#45;&gt;mini_vpprintf -->
<g id="edge38" class="edge">
<title>mini_printf&#45;&gt;mini_vpprintf</title>
<path fill="none" stroke="#0c648a" stroke-width="0.7" d="M598.55,-470.67C608.55,-454.86 622.58,-432.69 633.14,-415.99"/>
<polygon fill="#0c648a" stroke="#0c648a" stroke-width="0.7" points="634.47,-416.64 635.47,-412.3 631.98,-415.07 634.47,-416.64"/>
<text text-anchor="middle" x="646" y="-439" font-family="Arial" font-size="10.00" fill="#0c648a">17.56%</text>
</g>
<!-- strcpy&#45;&gt; -->
<g id="edge44" class="edge">
<title>strcpy&#45;&gt;</title>
<path fill="none" stroke="#0c5185" stroke-width="0.57" d="M775.12,-422.13C796.24,-404.37 823,-375.38 823,-342.5 823,-342.5 823,-342.5 823,-90.5 823,-24.24 585.93,-20.36 495.49,-21.29"/>
<polygon fill="#0c5185" stroke="#0c5185" stroke-width="0.57" points="495.34,-19.97 491.55,-21.34 495.37,-22.63 495.34,-19.97"/>
<text text-anchor="middle" x="840" y="-239" font-family="Arial" font-size="10.00" fill="#0c5185">14.15%</text>
</g>
<!-- mini_itoa -->
<g id="node22" class="node">
<title>mini_itoa</title>
<polygon fill="#0d1274" stroke="#0d1274" points="649,-312 593,-312 593,-271 649,-271 649,-312"/>
<text text-anchor="middle" x="621" y="-300" font-family="Arial" font-size="10.00" fill="#ffffff">mini_itoa</text>
<text text-anchor="middle" x="621" y="-289" font-family="Arial" font-size="10.00" fill="#ffffff">1.17%</text>
<text text-anchor="middle" x="621" y="-278" font-family="Arial" font-size="10.00" fill="#ffffff">(0.00%)</text>
</g>
<!-- mini_itoa&#45;&gt; -->
<g id="edge35" class="edge">
<title>mini_itoa&#45;&gt;</title>
<path fill="none" stroke="#0d0f73" stroke-width="0.5" d="M628.87,-270.8C629.75,-267.89 630.51,-264.89 631,-262 637.79,-222.13 646.48,-208.37 631,-171 628.84,-165.77 624.5,-167.07 622,-162 603.95,-125.41 633.5,-104.34 610,-71 584.42,-34.71 530.97,-24.77 495.54,-22.34"/>
<polygon fill="#0d0f73" stroke="#0d0f73" stroke-width="0.5" points="495.31,-21.09 491.74,-22.1 495.16,-23.54 495.31,-21.09"/>
<text text-anchor="middle" x="636" y="-139" font-family="Arial" font-size="10.00" fill="#0d0f73">0.46%</text>
</g>
<!-- mini_itoa&#45;&gt;__udivsi3 -->
<g id="edge36" class="edge">
<title>mini_itoa&#45;&gt;__udivsi3</title>
<path fill="none" stroke="#0d0e73" stroke-width="0.5" d="M608.6,-270.71C607.2,-267.87 605.94,-264.92 605,-262 600.18,-247.11 598.18,-229.59 597.39,-215.87"/>
<polygon fill="#0d0e73" stroke="#0d0e73" stroke-width="0.5" points="598.6,-215.54 597.2,-212.11 596.16,-215.67 598.6,-215.54"/>
<text text-anchor="middle" x="619" y="-239" font-family="Arial" font-size="10.00" fill="#0d0e73">0.32%</text>
</g>
<!-- mini_vpprintf&#45;&gt; -->
<g id="edge39" class="edge">
<title>mini_vpprintf&#45;&gt;</title>
<path fill="none" stroke="#0d1f78" stroke-width="0.5" d="M652.67,-370.96C653.22,-367.98 653.7,-364.92 654,-362 665.1,-255.43 676.33,-224.33 648,-121 638.22,-85.33 635.1,-69.37 603,-51 569.63,-31.91 525.51,-25.27 495.36,-23.03"/>
<polygon fill="#0d1f78" stroke="#0d1f78" stroke-width="0.5" points="495.33,-21.8 491.76,-22.78 495.16,-24.24 495.33,-21.8"/>
<text text-anchor="middle" x="679" y="-189" font-family="Arial" font-size="10.00" fill="#0d1f78">4.23%</text>
</g>
<!-- mini_vpprintf&#45;&gt;__puts_uart -->
<g id="edge40" class="edge">
<title>mini_vpprintf&#45;&gt;__puts_uart</title>
<path fill="none" stroke="#0d4582" stroke-width="0.5" d="M665,-370.67C678.78,-354.6 698.19,-331.94 712.58,-315.15"/>
<polygon fill="#0d4582" stroke="#0d4582" stroke-width="0.5" points="713.68,-315.76 715.03,-312.3 711.82,-314.16 713.68,-315.76"/>
<text text-anchor="middle" x="724" y="-339" font-family="Arial" font-size="10.00" fill="#0d4582">11.90%</text>
</g>
<!-- mini_vpprintf&#45;&gt;mini_itoa -->
<g id="edge41" class="edge">
<title>mini_vpprintf&#45;&gt;mini_itoa</title>
<path fill="none" stroke="#0d1274" stroke-width="0.5" d="M632.42,-370.98C630.69,-368.1 629.14,-365.06 628,-362 622.55,-347.35 620.81,-329.84 620.43,-316.05"/>
<polygon fill="#0d1274" stroke="#0d1274" stroke-width="0.5" points="621.65,-315.75 620.36,-312.27 619.2,-315.8 621.65,-315.75"/>
<text text-anchor="middle" x="642" y="-339" font-family="Arial" font-size="10.00" fill="#0d1274">1.17%</text>
</g>
</g>
</svg>
